<svg width="98" height="98" viewBox="0 0 98 98" fill="none" xmlns="http://www.w3.org/2000/svg">
<g clip-path="url(#clip0_11156_1094)">
<path d="M0 8C0 3.58172 3.58172 0 8 0H90C94.4183 0 98 3.58172 98 8V90C98 94.4183 94.4183 98 90 98H8C3.58172 98 0 94.4183 0 90V8Z" fill="url(#paint0_linear_11156_1094)"/>
<path d="M50.8622 21.5775C59.9734 18.7527 70.2351 24.7231 72.2331 34.1103C79.3168 33.8175 86.1553 39.2921 86.0997 47.0382L86.0996 47.0491L86.0994 47.0599C85.9781 53.9924 80.5077 59.6447 73.5729 60.0411L73.5146 60.0444L51.1 60.0777V72.2261C53.7156 73.1033 55.6006 75.5739 55.6006 78.485C55.6006 82.1301 52.6457 85.085 49.0006 85.085C45.3553 85.085 42.4006 82.1297 42.4006 78.4847C42.4006 75.5742 44.2847 73.1035 46.9 72.2262V60.084L26.6657 60.114L26.6562 60.114C18.4927 60.0517 11.8933 53.4432 11.9015 45.2978C11.806 38.5131 16.3918 32.6494 22.8272 30.9584C23.6382 22.8968 30.0379 15.9789 38.8221 16.0546C43.6024 15.9987 47.8673 18.166 50.8622 21.5775ZM48.4695 25.3032C46.1664 22.1381 42.6837 20.2037 38.8533 20.2546L38.8288 20.2549L38.8042 20.2547C32.0405 20.1863 26.9401 25.9091 26.9401 32.6933V34.5209L25.1301 34.7732C19.8834 35.5046 16.0209 40.0045 16.1013 45.252L16.1015 45.2704L16.1015 45.2888C16.0885 51.1083 20.8037 55.8642 26.6788 55.914L73.3885 55.8446C78.1164 55.5462 81.8121 51.691 81.8999 46.9973C81.9326 41.4309 76.361 37.3054 70.895 38.5012L68.5208 39.0206L68.3513 36.5961C67.7741 28.3362 58.5035 22.7869 50.9932 25.9984L49.4543 26.6565L48.4695 25.3032ZM41.1 64.3819V68.9829C41.1 71.2473 39.2644 73.0829 37 73.0829H34.2589C33.3817 75.6985 30.9109 77.5829 28 77.5829C24.3549 77.5829 21.4 74.628 21.4 70.9829C21.4 67.3378 24.3549 64.3829 28 64.3829C30.9109 64.3829 33.3817 66.2674 34.2589 68.8829H36.9V64.3819H41.1ZM61.1 64.3819V68.8829H63.7417C64.6189 66.2674 67.0897 64.3829 70.0006 64.3829C73.6457 64.3829 76.6006 67.3378 76.6006 70.9829C76.6006 74.628 73.6457 77.5829 70.0006 77.5829C67.0897 77.5829 64.6189 75.6985 63.7417 73.0829H61C58.7357 73.0829 56.9 71.2473 56.9 68.9829V64.3819H61.1ZM28 68.5829C26.6745 68.5829 25.6 69.6574 25.6 70.9829C25.6 72.3084 26.6745 73.3829 28 73.3829C29.3255 73.3829 30.4 72.3084 30.4 70.9829C30.4 69.6574 29.3255 68.5829 28 68.5829ZM70.0006 68.5829C68.6751 68.5829 67.6006 69.6574 67.6006 70.9829C67.6006 72.3084 68.6751 73.3829 70.0006 73.3829C71.3261 73.3829 72.4006 72.3084 72.4006 70.9829C72.4006 69.6574 71.3261 68.5829 70.0006 68.5829ZM49 76.085C47.675 76.085 46.6006 77.1594 46.6006 78.4847C46.6006 79.8104 47.6753 80.885 49.0006 80.885C50.3261 80.885 51.4006 79.8105 51.4006 78.485C51.4006 77.1599 50.3258 76.085 49 76.085Z" fill="white"/>
</g>
<defs>
<linearGradient id="paint0_linear_11156_1094" x1="0" y1="0" x2="98" y2="98" gradientUnits="userSpaceOnUse">
<stop offset="0.22" stop-color="#3F8BE8"/>
<stop offset="0.78" stop-color="#1255A6"/>
</linearGradient>
<clipPath id="clip0_11156_1094">
<rect width="98" height="98" fill="white"/>
</clipPath>
</defs>
</svg>
